<?xml version="1.0" standalone="no"?>
<!DOCTYPE svg PUBLIC "-//W3C//DTD SVG 20010904//EN"
 "http://www.w3.org/TR/2001/REC-SVG-20010904/DTD/svg10.dtd">
<svg version="1.0" xmlns="http://www.w3.org/2000/svg"
 width="2048.000000pt" height="2048.000000pt" viewBox="35 10 2048.000000 2048.000000"
 preserveAspectRatio="xMidYMid meet">

<g transform="translate(0.000000,2048.000000) scale(0.100000,-0.100000)"
fill="#000000" stroke="none">
<path d="M910 10245 l0 -4525 9200 0 9200 0 0 4525 0 4525 -9200 0 -9200 0 0
-4525z m17850 0 l0 -3975 -8655 0 -8655 0 0 3975 0 3975 8655 0 8655 0 0
-3975z"/>
<path d="M12069 12320 c-8 -5 -51 -12 -95 -16 -43 -3 -92 -12 -109 -19 -16 -7
-47 -16 -68 -20 -21 -3 -41 -13 -44 -21 -3 -7 -16 -14 -28 -14 -13 0 -27 -5
-30 -10 -4 -6 -21 -17 -38 -25 -39 -18 -62 -33 -94 -62 -14 -12 -38 -28 -54
-35 -16 -7 -29 -19 -29 -25 0 -7 -4 -13 -9 -13 -5 0 -23 -14 -40 -31 -17 -17
-31 -35 -31 -40 0 -5 -7 -9 -15 -9 -8 0 -15 -7 -15 -15 0 -8 -7 -15 -15 -15
-8 0 -15 -6 -15 -14 0 -8 -9 -18 -20 -21 -11 -3 -20 -13 -20 -21 0 -8 -6 -14
-14 -14 -7 0 -22 -12 -32 -26 -10 -15 -27 -34 -36 -43 -10 -8 -18 -21 -18 -28
0 -7 -18 -30 -40 -52 -22 -22 -40 -42 -40 -46 0 -3 -4 -11 -10 -18 -47 -57
-60 -76 -60 -86 0 -6 -7 -11 -15 -11 -8 0 -15 -7 -15 -16 0 -20 -39 -86 -57
-97 -7 -4 -13 -17 -13 -28 0 -10 -9 -27 -20 -36 -11 -10 -20 -21 -20 -26 0 -5
-7 -15 -15 -23 -8 -9 -15 -24 -15 -35 0 -11 -6 -22 -14 -25 -8 -3 -17 -17 -21
-31 -3 -14 -13 -32 -20 -40 -8 -8 -15 -23 -15 -34 0 -10 -9 -28 -20 -39 -11
-11 -20 -31 -20 -45 0 -14 -4 -25 -9 -25 -5 0 -12 -12 -16 -27 -3 -14 -15 -38
-26 -51 -10 -14 -19 -37 -19 -52 0 -15 -7 -33 -15 -40 -8 -7 -15 -22 -15 -34
0 -11 -7 -34 -15 -50 -8 -15 -15 -33 -15 -40 0 -6 -9 -28 -20 -49 -11 -20 -20
-47 -20 -59 0 -13 -7 -36 -16 -53 -8 -16 -18 -50 -21 -74 -4 -25 -12 -52 -20
-59 -7 -7 -13 -31 -13 -53 0 -22 -6 -52 -14 -67 -7 -15 -17 -61 -21 -102 -4
-41 -13 -82 -20 -90 -7 -8 -18 -62 -24 -120 -6 -58 -16 -139 -22 -180 -14 -98
-8 -581 7 -601 6 -8 14 -52 17 -98 4 -52 12 -90 21 -100 8 -9 18 -41 22 -71 4
-30 13 -64 20 -75 8 -11 14 -32 14 -48 0 -15 7 -30 15 -33 8 -4 15 -17 15 -29
0 -13 6 -30 14 -37 7 -8 17 -25 21 -38 4 -14 16 -36 26 -49 11 -13 19 -30 19
-37 0 -8 5 -14 10 -14 6 0 14 -8 17 -17 13 -34 50 -82 94 -121 77 -71 92 -82
104 -82 7 0 15 -7 19 -15 3 -8 12 -15 19 -15 8 0 20 -7 27 -15 7 -8 20 -15 29
-15 9 0 24 -9 34 -20 9 -11 25 -20 34 -20 10 0 27 -7 37 -15 11 -8 31 -15 46
-15 14 0 42 -9 63 -20 20 -11 49 -20 65 -20 15 0 37 -6 48 -14 11 -8 37 -18
59 -22 21 -4 50 -13 64 -20 14 -8 48 -14 74 -14 28 0 58 -7 74 -17 24 -16 58
-18 302 -18 244 0 280 2 308 18 18 9 49 17 70 17 21 0 46 7 56 15 11 7 36 16
57 20 22 4 44 13 51 21 6 8 18 14 26 14 8 0 26 9 40 20 14 11 34 20 44 20 11
0 19 3 19 8 0 4 14 13 30 20 17 8 30 20 30 28 0 8 7 14 15 14 9 0 29 14 45 30
16 16 34 30 40 30 5 0 10 4 10 10 0 12 48 60 60 60 6 0 10 6 10 13 0 6 16 25
35 41 19 16 35 35 35 43 0 7 7 13 15 13 8 0 15 4 15 9 0 5 6 16 13 23 27 30
57 78 57 93 0 8 5 15 10 15 6 0 18 16 27 35 9 19 20 35 24 35 4 0 10 15 13 34
4 19 13 37 21 40 9 3 15 18 15 35 0 16 6 31 15 35 12 4 15 24 15 86 0 62 -3
82 -15 86 -8 4 -15 12 -15 20 0 8 -6 14 -14 14 -8 0 -16 7 -20 15 -3 8 -16 15
-30 15 -14 0 -32 7 -41 17 -12 11 -40 18 -93 21 -43 3 -80 10 -84 16 -9 13
-224 11 -242 -2 -6 -5 -30 -12 -53 -15 -23 -3 -50 -12 -58 -21 -9 -9 -27 -16
-40 -16 -13 0 -28 -6 -32 -12 -10 -15 -61 -52 -85 -61 -10 -3 -18 -11 -18 -17
0 -5 -7 -10 -15 -10 -8 0 -15 -5 -15 -10 0 -6 -19 -27 -41 -48 -23 -20 -60
-54 -83 -76 -22 -21 -58 -49 -78 -63 -21 -14 -38 -30 -38 -35 0 -5 -8 -12 -17
-15 -10 -4 -27 -15 -37 -25 -11 -10 -27 -18 -37 -18 -9 0 -19 -7 -23 -15 -3
-8 -15 -15 -27 -15 -13 0 -31 -8 -41 -17 -27 -24 -168 -25 -195 0 -11 9 -27
17 -36 17 -9 0 -17 5 -17 10 0 6 -9 19 -20 30 -11 11 -20 29 -20 39 0 10 -7
21 -15 25 -9 3 -15 18 -15 34 0 16 -6 35 -14 41 -7 6 -16 42 -20 83 -3 39 -12
78 -19 86 -17 21 -17 388 1 419 6 12 15 70 19 129 3 60 12 120 20 134 7 14 13
47 13 73 0 27 6 63 14 80 8 18 17 56 20 85 3 29 12 62 21 74 8 13 15 33 15 45
0 13 9 40 20 60 11 21 20 49 20 63 0 14 7 34 15 44 8 11 15 32 15 47 0 14 6
32 14 38 8 7 18 27 22 44 3 18 13 41 20 52 8 11 14 27 14 36 0 9 9 28 20 42
11 14 20 36 20 50 0 14 7 27 15 31 9 3 15 18 15 35 0 16 6 31 14 34 8 3 17 19
21 35 3 17 13 33 21 36 8 3 14 17 14 31 0 14 7 28 15 31 8 4 15 14 15 24 0 9
9 27 20 40 11 13 20 28 20 35 0 7 9 20 20 30 11 10 20 26 20 37 0 10 3 18 8
18 4 0 18 21 32 48 13 26 33 59 45 73 11 14 27 36 35 49 8 12 23 31 33 42 9
12 17 24 17 29 0 4 16 24 35 43 19 20 35 40 35 44 0 4 9 13 20 20 11 7 20 19
20 27 0 8 6 15 14 15 8 0 16 7 20 15 3 8 12 15 21 15 8 0 15 7 15 15 0 10 10
15 29 15 16 0 31 6 35 15 7 20 57 19 96 -2 51 -28 79 -60 86 -101 4 -20 13
-46 20 -57 8 -14 13 -85 16 -232 2 -131 8 -216 15 -225 6 -7 14 -33 18 -58 4
-25 16 -61 26 -80 11 -19 19 -43 19 -52 0 -10 4 -18 9 -18 5 0 14 -13 20 -30
5 -16 15 -30 20 -30 6 0 11 -5 11 -11 0 -7 16 -26 35 -45 19 -18 35 -37 35
-43 0 -6 7 -11 15 -11 9 0 18 -7 21 -15 4 -8 14 -15 24 -15 9 0 25 -9 35 -20
10 -11 24 -20 32 -20 8 0 21 -6 28 -14 8 -7 32 -16 54 -20 23 -3 41 -10 41
-15 0 -4 27 -11 61 -14 33 -4 70 -14 82 -22 14 -10 45 -15 85 -15 75 0 139 30
149 70 3 14 12 30 18 35 7 6 16 30 19 53 4 24 13 51 21 59 8 8 15 30 15 48 0
19 6 54 14 77 8 24 17 81 20 128 7 92 19 119 35 78 5 -14 15 -28 22 -30 8 -3
14 -42 18 -113 4 -61 13 -120 19 -132 7 -12 12 -53 12 -92 0 -39 7 -91 16
-116 8 -25 19 -87 23 -138 4 -51 12 -101 18 -112 6 -11 14 -56 18 -100 4 -44
14 -92 21 -107 8 -15 14 -57 14 -93 0 -36 6 -78 14 -93 7 -15 16 -60 20 -101
3 -41 11 -80 17 -87 5 -6 14 -46 18 -88 5 -42 14 -82 20 -90 6 -7 14 -42 17
-77 4 -35 10 -69 15 -75 5 -6 11 -37 15 -70 4 -32 12 -72 19 -89 7 -16 16 -54
19 -83 3 -29 12 -62 21 -74 8 -13 15 -38 15 -58 1 -19 9 -53 20 -75 11 -22 19
-52 20 -67 0 -16 4 -28 9 -28 5 0 15 -16 21 -35 6 -19 15 -35 18 -35 4 0 20
-23 36 -51 32 -58 129 -156 163 -165 12 -3 24 -12 27 -20 3 -8 14 -14 24 -14
11 0 25 -7 32 -15 7 -8 20 -15 29 -15 9 0 27 -9 41 -20 14 -11 32 -20 41 -20
8 0 24 -7 35 -15 10 -8 30 -15 44 -15 14 0 36 -9 50 -20 14 -11 37 -20 51 -20
15 0 32 -7 39 -15 6 -7 33 -17 58 -21 26 -4 50 -11 53 -16 3 -5 29 -12 57 -17
28 -4 57 -13 64 -18 7 -6 43 -14 81 -18 37 -4 70 -11 73 -16 7 -12 101 -12
108 0 3 4 23 11 44 15 22 3 45 13 52 21 7 8 19 15 26 15 8 0 14 7 14 15 0 7 6
18 13 22 13 9 30 34 49 73 7 14 18 28 24 32 7 4 15 20 18 34 4 15 14 33 21 41
8 8 15 23 15 32 0 10 7 24 15 31 8 7 15 21 15 31 0 11 9 27 20 36 11 10 20 25
20 35 0 9 6 23 14 30 7 8 17 28 20 45 4 17 14 34 22 37 8 3 14 17 14 31 0 14
7 28 15 31 8 3 17 21 21 39 3 19 12 36 20 39 8 3 14 19 14 36 0 20 5 30 15 30
9 0 15 9 15 24 0 14 7 31 15 40 8 8 15 21 15 29 0 8 8 25 19 38 10 13 22 35
26 49 4 14 14 34 21 45 8 11 14 27 14 36 0 9 7 22 15 29 8 7 15 22 15 35 0 12
9 30 20 40 11 10 20 26 20 35 0 9 7 25 15 36 8 10 15 26 15 35 0 9 9 28 20 42
11 14 20 37 20 51 0 16 6 26 15 26 9 0 15 9 15 24 0 13 9 35 20 49 11 14 20
34 20 45 0 11 7 22 15 26 8 3 15 16 15 28 0 13 6 32 14 43 7 11 17 31 21 45 4
14 16 36 26 49 11 13 19 32 19 41 0 10 7 23 15 30 8 7 15 26 15 42 0 16 6 31
15 34 8 4 15 12 15 20 0 13 22 63 61 136 10 20 19 48 19 61 0 14 7 27 15 31 8
3 15 16 15 29 0 14 7 30 15 37 8 7 15 19 15 27 0 8 8 31 19 51 32 64 50 106
57 135 4 16 13 31 20 34 8 3 14 18 14 34 0 17 6 32 15 35 8 4 15 14 15 23 0 9
9 34 20 56 11 22 20 49 20 61 0 12 7 27 15 34 8 7 15 20 15 29 0 9 6 25 14 36
7 11 19 38 26 60 7 22 19 46 27 53 7 7 13 27 13 43 0 16 4 29 9 29 5 0 14 20
20 44 6 25 15 48 21 51 5 3 10 18 10 33 0 15 9 35 20 45 11 9 20 27 20 39 0
13 7 36 15 52 8 15 15 38 15 50 0 11 9 32 20 46 11 14 20 40 20 58 0 19 6 35
15 38 8 3 17 22 20 42 4 21 13 49 21 64 8 14 14 34 14 45 0 10 7 31 15 47 17
32 22 216 5 216 -5 0 -12 16 -16 35 -3 20 -12 35 -20 35 -8 0 -14 6 -14 14 0
7 -16 24 -35 37 -19 13 -38 32 -41 42 -3 9 -10 17 -15 17 -6 0 -17 7 -25 15
-9 8 -24 15 -34 15 -11 0 -23 6 -27 13 -9 14 -36 31 -80 51 -18 8 -33 20 -33
25 0 6 -9 11 -20 11 -11 0 -28 9 -37 20 -10 11 -27 20 -39 20 -12 0 -27 7 -34
15 -7 8 -24 15 -39 15 -14 0 -39 9 -56 20 -46 30 -181 29 -221 -2 -46 -36 -74
-69 -74 -88 0 -10 -7 -23 -15 -30 -8 -7 -15 -22 -15 -35 0 -12 -9 -32 -20 -45
-11 -13 -20 -37 -20 -55 0 -20 -6 -35 -15 -39 -8 -3 -15 -16 -15 -28 0 -13 -6
-35 -14 -50 -8 -15 -17 -40 -21 -57 -3 -16 -12 -35 -20 -41 -8 -6 -17 -26 -21
-43 -3 -18 -13 -41 -20 -52 -8 -11 -14 -32 -14 -48 0 -15 -7 -30 -15 -33 -9
-4 -15 -19 -15 -38 0 -17 -9 -44 -20 -61 -11 -16 -20 -37 -20 -46 0 -9 -6 -22
-14 -28 -7 -6 -16 -30 -19 -53 -3 -23 -13 -45 -21 -50 -10 -6 -16 -23 -16 -43
0 -19 -4 -35 -10 -35 -5 0 -13 -18 -16 -40 -4 -22 -15 -50 -25 -61 -11 -12
-19 -32 -19 -45 0 -13 -5 -26 -10 -29 -6 -3 -15 -26 -21 -51 -6 -24 -15 -44
-20 -44 -5 0 -9 -10 -9 -22 0 -13 -12 -45 -25 -73 -14 -27 -25 -58 -25 -67 0
-10 -4 -18 -9 -18 -5 0 -14 -20 -20 -44 -6 -25 -15 -48 -21 -51 -5 -3 -10 -22
-10 -41 0 -23 -5 -34 -15 -34 -8 0 -17 -15 -21 -37 -4 -21 -15 -49 -25 -62
-11 -13 -19 -35 -19 -48 0 -13 -7 -31 -15 -39 -8 -9 -15 -25 -15 -37 0 -12 -7
-31 -15 -41 -8 -11 -15 -30 -15 -41 0 -12 -9 -32 -20 -45 -11 -13 -20 -33 -20
-46 0 -13 -5 -26 -10 -29 -6 -3 -15 -26 -21 -50 -6 -25 -17 -50 -25 -56 -8 -6
-14 -24 -14 -39 0 -15 -7 -33 -15 -40 -8 -7 -18 -30 -21 -51 -4 -23 -12 -39
-20 -39 -9 0 -14 -12 -14 -35 0 -22 -6 -38 -15 -41 -8 -4 -15 -15 -15 -26 0
-20 -4 -29 -53 -126 -15 -28 -27 -59 -27 -68 0 -8 -7 -22 -15 -30 -8 -9 -15
-26 -15 -40 0 -14 -7 -27 -15 -30 -8 -4 -15 -18 -15 -34 0 -15 -9 -35 -20 -45
-11 -10 -20 -28 -20 -40 0 -11 -7 -30 -15 -41 -8 -10 -15 -27 -15 -36 0 -19
-42 -68 -58 -68 -6 0 -13 34 -16 78 -3 42 -11 100 -17 127 -6 28 -14 97 -18
155 -4 58 -13 116 -20 129 -7 13 -17 77 -21 142 -4 65 -12 125 -18 132 -6 7
-14 69 -18 138 -4 68 -12 130 -18 138 -6 7 -13 70 -17 140 -3 70 -11 136 -17
148 -7 12 -12 65 -12 121 0 60 -6 118 -15 148 -9 27 -18 96 -21 154 -3 58 -11
130 -19 160 -8 30 -17 102 -21 160 -3 58 -13 120 -20 139 -9 21 -14 72 -14
135 0 69 -4 108 -14 121 -7 11 -16 40 -19 64 -3 24 -10 47 -15 50 -5 3 -13 17
-17 31 -9 29 -14 36 -94 118 -33 34 -65 62 -70 62 -4 0 -14 7 -21 15 -7 8 -25
15 -40 15 -16 0 -30 7 -34 15 -3 8 -13 15 -23 15 -10 0 -34 8 -53 18 -19 11
-55 22 -79 26 -24 4 -56 13 -72 21 -22 12 -70 15 -218 15 l-190 0 -28 -26 -28
-26 0 -186 c0 -139 -3 -186 -12 -189 -7 -3 -17 7 -23 21 -5 14 -14 26 -20 26
-5 0 -10 4 -10 9 0 20 -142 151 -163 151 -7 0 -22 8 -33 18 -30 28 -90 62
-108 62 -9 0 -16 7 -16 15 0 10 -10 15 -29 15 -16 0 -34 7 -41 15 -7 8 -20 15
-29 15 -9 0 -31 9 -49 20 -18 11 -41 20 -51 20 -10 0 -28 9 -41 20 -14 12 -37
20 -61 20 -20 0 -39 5 -41 11 -2 6 -28 15 -58 20 -29 5 -56 13 -60 19 -4 6
-34 15 -67 20 -34 4 -70 13 -81 19 -12 6 -38 11 -59 11 -21 0 -65 7 -96 15
-64 16 -193 20 -218 5z"/>
<path d="M9295 12254 c-27 -8 -92 -19 -143 -23 -51 -4 -98 -13 -104 -19 -7 -7
-30 -12 -52 -12 -24 0 -54 -8 -71 -20 -16 -11 -38 -20 -47 -20 -10 0 -32 -9
-50 -20 -18 -11 -40 -20 -49 -20 -9 0 -22 -7 -29 -15 -7 -8 -20 -15 -30 -15
-10 0 -23 -7 -30 -15 -7 -8 -21 -15 -32 -15 -10 0 -21 -6 -24 -14 -3 -8 -19
-18 -36 -21 -16 -4 -32 -13 -34 -20 -3 -7 -17 -16 -32 -20 -15 -4 -29 -10 -32
-13 -3 -4 -25 -21 -50 -37 -25 -16 -49 -36 -53 -42 -4 -7 -15 -13 -22 -13 -8
0 -15 -5 -15 -10 0 -6 -8 -14 -17 -17 -9 -4 -24 -14 -33 -22 -9 -9 -29 -25
-44 -36 -16 -11 -37 -28 -48 -37 -10 -10 -22 -18 -28 -18 -5 0 -10 -7 -10 -15
0 -8 -7 -15 -15 -15 -8 0 -15 -6 -15 -14 0 -8 -9 -18 -20 -21 -11 -3 -20 -12
-20 -19 0 -7 -16 -26 -35 -42 -19 -16 -35 -32 -35 -37 0 -4 -16 -30 -35 -57
-29 -41 -35 -59 -35 -99 0 -28 5 -53 11 -57 6 -3 17 -22 25 -40 8 -19 19 -34
24 -34 6 0 10 -7 10 -15 0 -8 6 -15 13 -15 7 0 20 -9 30 -20 9 -11 26 -20 37
-20 11 0 20 -4 20 -10 0 -5 15 -16 34 -24 18 -8 37 -19 40 -25 4 -6 20 -11 36
-11 15 0 30 -5 32 -10 2 -6 32 -16 68 -22 36 -7 68 -16 72 -22 10 -15 362 -14
380 1 8 7 33 15 57 19 23 4 45 13 48 20 3 8 13 14 23 14 9 0 38 16 63 35 25
19 54 35 64 35 10 0 26 9 36 20 9 11 25 20 36 20 10 0 24 7 31 15 7 8 21 15
31 15 11 0 27 9 36 20 10 11 27 20 39 20 12 0 27 7 34 15 7 8 24 15 38 15 14
0 33 7 43 16 14 13 43 16 131 18 l113 1 30 -30 c27 -27 30 -37 30 -90 0 -50
-5 -67 -30 -104 -16 -24 -34 -51 -40 -59 -19 -28 -92 -102 -101 -102 -5 0 -29
-18 -54 -40 -68 -60 -68 -60 -80 -60 -5 0 -18 -8 -28 -17 -25 -24 -50 -40 -89
-58 -18 -9 -33 -20 -33 -25 0 -6 -9 -10 -19 -10 -11 0 -23 -4 -26 -10 -3 -5
-32 -22 -63 -37 -31 -15 -68 -35 -81 -45 -13 -10 -30 -18 -38 -18 -8 0 -21 -7
-29 -15 -9 -8 -24 -15 -33 -15 -10 0 -24 -7 -31 -15 -7 -8 -22 -15 -34 -15
-11 0 -32 -9 -46 -20 -14 -11 -29 -20 -35 -20 -5 0 -28 -9 -50 -20 -22 -11
-48 -19 -58 -20 -10 0 -20 -7 -23 -15 -4 -9 -19 -15 -35 -15 -16 0 -46 -9 -66
-20 -21 -11 -45 -20 -54 -20 -9 0 -22 -7 -29 -15 -7 -8 -26 -15 -43 -15 -17 0
-38 -7 -48 -16 -10 -9 -37 -18 -61 -21 -24 -3 -45 -10 -49 -14 -3 -5 -26 -13
-51 -18 -26 -4 -54 -16 -63 -25 -9 -9 -25 -16 -35 -16 -10 0 -34 -10 -54 -22
-35 -23 -35 -24 -36 -96 0 -56 4 -74 15 -78 8 -4 15 -15 15 -25 0 -10 9 -28
20 -39 11 -11 20 -24 20 -30 0 -5 6 -10 14 -10 8 0 17 -8 21 -19 7 -23 138
-161 153 -161 6 0 16 -8 21 -17 5 -10 30 -27 55 -38 25 -11 46 -25 46 -31 0
-13 23 -24 50 -24 10 0 20 -6 23 -14 3 -7 28 -16 55 -20 28 -3 52 -11 54 -17
2 -7 100 -10 298 -10 242 1 300 -2 320 -14 14 -8 37 -19 53 -26 15 -6 27 -15
27 -19 0 -5 9 -12 20 -15 11 -3 20 -13 20 -21 0 -8 7 -14 15 -14 8 0 15 -8 15
-19 0 -10 9 -30 21 -45 19 -24 20 -37 17 -149 -2 -101 -6 -127 -20 -141 -10
-10 -18 -27 -18 -38 0 -11 -9 -31 -20 -45 -11 -14 -20 -32 -20 -39 0 -8 -4
-14 -10 -14 -5 0 -10 -5 -10 -11 0 -6 -25 -36 -55 -66 -30 -30 -55 -59 -55
-64 0 -5 -7 -9 -15 -9 -9 0 -18 -7 -21 -15 -4 -8 -12 -15 -20 -15 -8 0 -14 -4
-14 -10 0 -5 -15 -16 -32 -25 -18 -8 -40 -19 -48 -24 -43 -25 -111 -51 -136
-51 -16 -1 -40 -7 -54 -15 -30 -17 -210 -21 -227 -4 -5 5 -43 15 -84 20 -40 6
-82 17 -93 25 -11 8 -32 14 -46 14 -14 0 -42 9 -63 20 -20 11 -46 20 -58 20
-11 0 -27 7 -35 15 -9 8 -26 15 -38 15 -13 0 -29 6 -35 14 -7 8 -27 18 -44 21
-18 4 -39 13 -47 20 -8 7 -33 15 -54 18 -22 4 -43 12 -47 18 -5 9 -59 13 -191
13 -159 1 -186 -1 -208 -16 -13 -10 -34 -18 -46 -18 -12 0 -44 -21 -73 -48
-41 -38 -51 -54 -51 -80 0 -18 5 -32 10 -32 6 0 10 -11 10 -25 0 -16 6 -25 15
-25 8 0 15 -6 15 -14 0 -16 149 -156 167 -156 4 0 21 -14 37 -30 16 -16 38
-32 48 -36 11 -3 28 -13 38 -22 35 -32 49 -42 75 -54 14 -6 25 -15 25 -19 0
-5 25 -20 55 -34 30 -15 55 -31 55 -36 0 -5 13 -9 30 -9 19 0 33 -7 40 -20 6
-11 19 -20 30 -20 10 0 25 -6 32 -13 7 -8 31 -16 52 -20 21 -3 46 -13 56 -22
9 -8 30 -15 46 -15 16 0 38 -6 49 -14 11 -7 46 -16 78 -20 32 -4 70 -14 85
-22 15 -7 52 -14 82 -14 30 0 80 -7 110 -15 64 -17 387 -20 460 -4 25 5 89 13
143 18 54 4 102 12 105 18 4 6 34 14 67 18 33 4 68 13 79 21 11 8 37 14 57 14
23 0 39 5 43 15 3 8 24 18 46 21 22 4 43 11 46 15 3 5 20 16 37 25 61 28 87
45 87 55 0 5 9 9 19 9 11 0 26 6 33 13 7 7 21 16 31 20 9 3 17 13 17 22 0 8 5
15 11 15 10 0 52 35 108 91 78 79 121 126 121 135 0 5 9 17 20 27 11 9 20 26
20 37 0 11 7 20 15 20 8 0 15 8 15 19 0 10 9 30 20 44 11 14 20 34 20 46 0 11
6 24 13 28 8 4 17 30 21 57 3 27 11 55 16 61 14 17 17 289 3 307 -5 7 -13 33
-17 57 -4 24 -13 53 -21 64 -8 12 -15 28 -15 37 0 8 -16 39 -35 69 -19 29 -35
57 -35 62 0 5 -7 12 -15 15 -8 3 -17 15 -21 26 -9 29 -213 228 -233 228 -6 0
-11 6 -11 14 0 15 -21 26 -50 26 -10 0 -20 7 -24 15 -3 8 -14 15 -24 15 -11 0
-25 7 -32 15 -7 8 -26 15 -42 15 -16 0 -41 9 -55 20 -14 11 -35 20 -47 20 -30
0 -45 12 -48 40 -3 19 3 25 32 32 19 6 39 16 43 24 4 8 18 14 31 14 13 0 29 7
36 15 7 8 24 15 39 15 15 0 34 9 44 20 9 11 28 20 42 20 14 0 25 4 25 10 0 5
16 16 35 24 19 8 35 20 35 25 0 6 11 11 24 11 13 0 29 7 36 15 7 8 18 15 24
15 6 0 19 9 29 20 9 11 23 20 30 20 7 0 20 8 29 18 21 22 40 36 110 80 16 9
28 23 28 30 0 6 7 12 15 12 8 0 15 7 15 15 0 8 6 15 14 15 8 0 18 9 21 20 3
11 12 20 20 20 8 0 17 9 20 20 3 11 10 20 15 20 4 0 13 14 19 30 5 17 15 30
20 30 6 0 11 7 11 15 0 9 7 18 15 21 8 3 19 23 25 44 6 21 17 43 25 50 8 7 15
27 15 45 0 19 5 35 11 37 32 11 35 419 3 482 -8 16 -14 43 -14 61 0 18 -9 42
-20 55 -11 13 -20 34 -20 47 0 13 -7 26 -15 29 -8 3 -20 24 -25 45 -6 21 -15
39 -20 39 -6 0 -10 9 -10 20 0 11 -7 23 -15 26 -8 4 -15 12 -15 18 0 7 -11 23
-25 36 -14 13 -25 27 -25 32 0 13 -16 31 -136 154 -61 63 -116 114 -122 114
-5 0 -12 7 -16 15 -3 8 -12 15 -20 15 -7 0 -16 7 -20 15 -3 8 -15 15 -26 15
-11 0 -23 7 -26 15 -4 8 -15 15 -25 15 -10 0 -28 9 -38 19 -10 10 -33 22 -49
26 -17 3 -33 13 -36 21 -3 9 -20 14 -44 14 -22 0 -45 6 -51 14 -6 7 -39 16
-76 18 -36 3 -72 11 -80 18 -24 20 -220 23 -280 4z"/>
<path d="M6490 12219 c-25 -6 -72 -14 -105 -18 -33 -4 -77 -15 -97 -24 -21
-10 -47 -17 -58 -17 -11 0 -37 -9 -57 -20 -21 -11 -45 -20 -54 -20 -9 0 -22
-7 -29 -15 -7 -8 -26 -15 -42 -15 -16 0 -31 -6 -34 -15 -4 -8 -14 -15 -23 -15
-9 0 -43 -18 -76 -40 -33 -22 -65 -40 -71 -40 -7 0 -14 -7 -18 -15 -3 -8 -12
-15 -21 -15 -8 0 -15 -5 -15 -11 0 -5 -13 -15 -29 -20 -16 -6 -32 -17 -35 -25
-3 -8 -12 -14 -21 -14 -8 0 -15 -7 -15 -15 0 -8 -5 -15 -10 -15 -16 0 -240
-209 -240 -223 0 -11 -47 -57 -59 -57 -6 0 -11 -9 -11 -20 0 -11 -7 -20 -15
-20 -8 0 -15 -7 -15 -15 0 -9 -6 -18 -14 -21 -8 -3 -17 -16 -20 -30 -4 -13
-11 -24 -16 -24 -6 0 -15 -11 -20 -25 -5 -14 -14 -25 -19 -25 -5 0 -14 -13
-21 -30 -7 -16 -16 -30 -21 -30 -5 0 -9 -9 -9 -20 0 -11 -6 -23 -14 -26 -8 -3
-18 -18 -21 -34 -3 -16 -13 -31 -21 -34 -8 -3 -14 -14 -14 -25 0 -11 -9 -35
-20 -53 -12 -19 -20 -51 -20 -75 0 -23 -4 -45 -10 -48 -5 -3 -10 -17 -10 -30
0 -13 5 -27 10 -30 6 -3 10 -16 10 -29 0 -23 57 -86 79 -86 7 0 24 -9 38 -20
17 -13 41 -20 71 -20 26 0 52 -6 61 -15 21 -18 313 -37 386 -25 28 5 71 9 96
9 25 1 54 8 65 16 10 8 31 15 46 15 15 0 30 5 34 11 3 6 22 17 40 25 19 8 34
18 34 23 0 5 10 11 23 14 25 7 107 80 107 96 0 6 9 11 20 11 11 0 20 7 20 15
0 8 6 15 13 15 15 0 57 44 57 59 0 6 6 11 13 11 7 0 20 8 28 18 9 9 26 24 39
32 13 8 34 25 47 38 13 12 28 22 34 22 5 0 12 7 15 15 4 8 13 15 20 15 8 0 17
6 20 14 3 8 18 20 32 26 37 15 68 33 90 53 10 10 24 17 31 17 6 0 23 7 36 16
18 12 50 17 111 18 80 1 87 -1 106 -24 18 -22 20 -34 14 -100 -4 -49 -11 -79
-21 -86 -8 -6 -15 -20 -15 -31 0 -11 -7 -26 -15 -33 -8 -7 -15 -18 -15 -25 0
-16 -51 -95 -61 -95 -4 0 -10 -13 -14 -29 -3 -16 -13 -32 -21 -35 -8 -3 -14
-12 -14 -21 0 -8 -4 -15 -10 -15 -5 0 -16 -16 -24 -35 -8 -19 -20 -35 -25 -35
-6 0 -11 -7 -11 -15 0 -7 -6 -18 -14 -22 -7 -4 -28 -29 -45 -54 -17 -26 -42
-57 -56 -70 -13 -13 -25 -29 -25 -36 0 -7 -6 -16 -13 -20 -7 -4 -26 -26 -42
-48 -17 -22 -36 -44 -42 -48 -7 -4 -13 -15 -13 -22 0 -8 -7 -15 -15 -15 -8 0
-15 -6 -15 -13 0 -8 -16 -27 -35 -43 -19 -16 -35 -32 -35 -36 0 -4 -15 -23
-32 -42 -43 -44 -78 -88 -78 -98 0 -4 -7 -8 -15 -8 -8 0 -15 -4 -15 -10 0 -5
-16 -24 -35 -43 -19 -19 -35 -39 -35 -46 0 -6 -6 -11 -14 -11 -8 0 -18 -9 -21
-20 -3 -11 -13 -20 -21 -20 -8 0 -14 -7 -14 -15 0 -8 -7 -15 -15 -15 -8 0 -15
-4 -15 -10 0 -13 -297 -310 -310 -310 -6 0 -10 -7 -10 -15 0 -8 -7 -15 -15
-15 -8 0 -15 -5 -15 -11 0 -12 -46 -59 -58 -59 -11 0 -52 -47 -52 -59 0 -6 -5
-11 -10 -11 -6 0 -25 -16 -43 -35 -17 -19 -38 -35 -44 -35 -7 0 -13 -7 -13
-15 0 -8 -7 -15 -15 -15 -8 0 -15 -6 -15 -14 0 -8 -9 -18 -20 -21 -11 -3 -20
-13 -20 -21 0 -8 -4 -14 -9 -14 -5 0 -38 -27 -73 -60 -34 -33 -67 -60 -73 -60
-5 -1 -21 -14 -35 -30 -13 -17 -30 -30 -37 -30 -7 0 -13 -6 -13 -14 0 -8 -9
-18 -20 -21 -11 -3 -20 -13 -20 -21 0 -8 -7 -14 -15 -14 -8 0 -15 -4 -15 -8 0
-5 -22 -23 -49 -40 -27 -18 -51 -39 -55 -47 -3 -8 -12 -15 -21 -15 -8 0 -15
-5 -15 -10 0 -6 -8 -14 -17 -17 -15 -6 -23 -12 -73 -55 -11 -10 -24 -18 -30
-18 -5 0 -13 -6 -17 -13 -4 -8 -16 -16 -25 -20 -10 -3 -18 -13 -18 -22 0 -8
-7 -15 -15 -15 -21 0 -22 -168 -1 -176 8 -3 17 -16 20 -29 6 -25 187 -215 205
-215 6 0 11 -7 11 -15 0 -8 7 -15 15 -15 8 0 15 -7 15 -15 0 -8 5 -15 11 -15
7 0 26 -15 43 -34 18 -18 42 -36 53 -40 12 -4 24 -13 27 -21 3 -8 11 -15 18
-15 7 0 29 -16 48 -35 19 -19 44 -35 55 -35 12 0 30 -7 41 -15 27 -21 230 -21
270 0 17 9 56 15 94 15 36 0 77 6 91 14 14 7 60 16 103 20 42 4 89 12 104 18
15 6 75 14 133 18 59 5 116 13 128 19 11 6 76 16 143 21 68 5 146 14 173 19
28 5 82 10 121 10 39 1 93 8 120 17 32 10 110 18 229 23 99 4 193 13 208 19
16 7 43 12 60 12 20 0 39 8 50 20 21 25 22 78 2 104 -8 11 -15 27 -15 37 0 9
-9 28 -20 42 -11 14 -20 35 -20 46 0 12 -7 24 -15 27 -8 4 -15 14 -15 24 0 10
-7 25 -15 34 -8 8 -15 20 -15 26 0 6 -7 13 -15 17 -9 3 -22 21 -30 39 -8 19
-19 34 -24 34 -6 0 -11 6 -11 13 0 21 -55 64 -110 86 -14 6 -38 17 -53 26 -38
20 -242 20 -355 0 -46 -8 -143 -17 -215 -21 -73 -4 -137 -11 -144 -16 -7 -6
-39 -12 -73 -15 -50 -5 -60 -3 -60 10 0 9 6 20 13 24 8 4 16 16 20 26 3 9 13
17 22 17 8 0 15 4 15 9 0 5 13 14 29 21 16 6 32 18 35 26 3 8 12 14 21 14 8 0
15 7 15 15 0 8 7 15 15 15 9 0 18 7 21 15 4 8 12 15 20 15 7 0 24 10 38 23 77
70 97 87 105 87 5 0 11 7 15 15 3 8 12 15 21 15 8 0 15 4 15 10 0 9 47 60 56
60 2 0 25 20 50 45 64 62 116 105 126 105 4 0 8 7 8 15 0 8 4 15 10 15 12 0
60 48 60 60 0 6 9 10 20 10 11 0 20 4 20 9 0 14 45 61 59 61 6 0 11 6 11 13 0
15 44 57 59 57 6 0 11 5 11 10 0 6 24 34 53 63 28 29 69 73 90 98 20 24 44 51
52 60 8 9 15 21 15 27 0 7 7 12 15 12 8 0 15 5 15 11 0 7 16 26 35 45 19 18
35 37 35 43 0 5 6 14 13 18 6 4 25 28 42 52 16 24 35 45 42 48 7 3 13 12 13
19 0 8 6 17 14 20 8 3 17 15 20 27 3 12 19 37 36 55 16 18 33 44 36 57 3 13
12 26 20 29 8 3 14 12 14 20 0 7 6 16 14 19 7 3 16 19 19 36 4 18 13 31 22 31
8 0 15 8 15 18 0 11 9 27 20 37 11 10 20 23 20 29 0 13 33 80 48 99 5 7 13 26
16 44 4 17 14 37 22 44 8 6 14 22 14 35 0 12 6 29 13 36 8 7 17 37 20 67 3 29
13 64 22 77 22 34 22 324 0 358 -9 13 -18 47 -22 75 -3 28 -12 56 -19 62 -8 6
-14 22 -14 36 0 13 -6 26 -14 29 -8 3 -18 19 -21 36 -4 16 -13 32 -21 35 -8 3
-14 11 -14 18 0 20 -43 84 -56 85 -7 0 -14 9 -17 20 -3 11 -12 20 -21 20 -9 0
-16 4 -16 10 0 13 -75 90 -88 90 -6 0 -14 9 -17 20 -3 11 -11 20 -16 20 -5 0
-17 8 -28 18 -34 31 -65 52 -78 52 -7 0 -13 6 -13 14 0 8 -13 17 -29 21 -16 3
-32 13 -35 21 -3 8 -14 14 -25 14 -10 0 -21 7 -25 15 -3 8 -16 15 -30 15 -14
0 -28 4 -31 10 -3 5 -23 14 -45 20 -21 6 -46 17 -54 25 -8 8 -27 15 -43 15
-15 1 -46 9 -68 20 -22 11 -58 19 -80 20 -23 0 -46 5 -52 11 -15 15 -303 21
-363 8z"/>
<path d="M4045 12210 c-3 -5 -16 -10 -28 -10 -24 0 -117 -78 -117 -98 0 -7 -7
-12 -15 -12 -8 0 -15 -7 -15 -15 0 -9 -6 -18 -14 -21 -8 -3 -20 -19 -26 -35
-7 -16 -16 -29 -21 -29 -5 0 -9 -6 -9 -13 0 -7 -9 -20 -20 -30 -11 -9 -20 -25
-20 -36 0 -10 -7 -21 -15 -25 -8 -3 -15 -11 -15 -18 0 -7 -9 -19 -20 -26 -11
-7 -20 -21 -20 -32 0 -12 -7 -23 -15 -26 -8 -4 -15 -14 -15 -24 0 -10 -6 -25
-13 -32 -7 -7 -18 -24 -25 -38 -22 -43 -47 -84 -59 -98 -7 -7 -13 -22 -13 -33
0 -11 -7 -22 -15 -25 -8 -4 -15 -17 -15 -30 0 -13 -9 -28 -20 -34 -13 -7 -20
-21 -20 -38 0 -15 -7 -38 -16 -51 -10 -13 -17 -36 -16 -51 1 -32 41 -100 60
-100 6 0 21 -9 32 -20 11 -11 23 -20 28 -20 4 0 18 -9 32 -20 14 -11 31 -20
38 -20 7 0 25 -12 41 -26 25 -22 28 -30 20 -51 -5 -13 -9 -47 -9 -74 0 -27 -6
-60 -14 -72 -7 -12 -16 -51 -20 -86 -3 -35 -10 -69 -15 -75 -4 -6 -11 -41 -15
-77 -3 -36 -15 -91 -26 -122 -11 -31 -20 -76 -20 -99 0 -24 -7 -61 -15 -83 -8
-22 -14 -69 -15 -106 0 -36 -5 -70 -12 -77 -6 -6 -15 -55 -19 -108 -4 -53 -11
-99 -17 -103 -6 -3 -15 -48 -21 -100 -6 -51 -15 -99 -22 -107 -6 -7 -14 -57
-19 -111 -4 -54 -13 -116 -19 -138 -6 -22 -11 -68 -11 -102 0 -34 -6 -82 -14
-105 -8 -24 -17 -92 -21 -153 -4 -60 -12 -116 -18 -124 -16 -19 -23 -631 -7
-631 6 0 24 -14 40 -30 16 -16 34 -30 40 -30 5 0 10 -6 10 -14 0 -15 21 -26
50 -26 9 0 23 -6 29 -14 6 -7 30 -16 52 -20 23 -4 51 -13 62 -21 12 -8 40 -15
62 -15 22 0 50 -6 61 -14 12 -8 45 -18 75 -22 30 -4 66 -13 81 -20 15 -8 49
-14 77 -14 42 0 53 4 70 28 12 15 26 33 32 40 6 7 14 39 19 71 4 33 12 67 18
77 5 11 12 50 15 88 4 37 10 73 15 80 5 6 12 44 16 84 3 40 13 83 20 95 8 12
18 51 22 86 4 36 13 76 20 90 8 14 14 51 14 81 0 31 6 64 14 75 7 11 16 49 20
85 4 36 12 68 18 71 5 3 12 35 15 70 3 35 12 74 20 86 8 12 17 48 20 80 3 32
10 63 15 70 6 7 12 39 15 73 3 33 12 65 19 71 8 7 14 31 14 61 0 29 8 65 20
88 11 22 20 53 20 69 0 17 6 48 14 68 8 21 17 59 20 86 3 26 12 61 21 77 8 16
15 47 15 70 0 22 6 51 14 63 7 12 16 44 20 70 3 27 13 58 21 70 8 12 15 42 15
67 0 26 7 55 15 66 8 10 15 35 15 54 0 19 6 46 13 60 8 15 17 48 20 75 4 27
14 59 23 72 8 13 18 47 21 76 3 29 10 54 14 57 4 3 12 34 18 69 6 36 15 69 21
75 5 5 10 26 10 46 0 19 9 52 20 73 11 20 20 49 20 64 0 16 7 41 15 57 8 15
15 40 15 55 0 14 9 43 20 64 11 20 20 52 20 70 0 18 6 41 14 52 7 11 17 44 21
73 4 28 10 52 15 52 19 0 19 52 0 95 -11 24 -20 46 -20 49 0 10 -48 56 -59 56
-6 0 -11 5 -11 10 0 6 -12 16 -27 23 -15 6 -39 23 -53 35 -13 13 -39 30 -57
37 -18 8 -33 19 -33 24 0 6 -6 11 -13 11 -8 0 -24 9 -37 20 -13 11 -31 20 -40
20 -10 0 -23 7 -30 15 -7 8 -23 15 -35 15 -12 0 -28 7 -35 15 -7 8 -22 15 -34
15 -12 0 -38 9 -59 20 -20 11 -45 20 -54 20 -10 0 -31 9 -48 20 -20 13 -47 20
-82 20 -29 0 -53 5 -53 10 0 6 -22 10 -49 10 -28 0 -53 -4 -56 -10z"/>
</g>
</svg>
