<!--?xml version="1.0" standalone="no"?-->
              <svg id="sw-js-blob-svg" viewBox="0 0 100 100" xmlns="http://www.w3.org/2000/svg" version="1.1">
                    <defs> 
                        <linearGradient id="sw-gradient" x1="0" x2="1" y1="1" y2="0">
                            <stop id="stop1" stop-color="rgba(64, 113, 244, 1)" offset="0%"></stop>
                            <stop id="stop2" stop-color="rgba(239.074, 248.256, 255, 1)" offset="100%"></stop>
                        </linearGradient>
                    </defs>
                <path fill="url(#sw-gradient)" d="M20.1,-27.1C25.4,-23.8,28.5,-17.1,30.6,-10.1C32.7,-3.1,33.8,4.1,32.5,11.4C31.3,18.7,27.8,26,21.9,29.3C16.1,32.6,8.1,32,-0.8,33.1C-9.8,34.3,-19.5,37.3,-26.5,34.4C-33.5,31.4,-37.8,22.5,-38.7,14C-39.6,5.4,-37,-2.9,-34.8,-11.7C-32.5,-20.5,-30.4,-29.7,-24.6,-32.8C-18.9,-35.8,-9.4,-32.7,-1,-31.3C7.4,-29.9,14.8,-30.3,20.1,-27.1Z" width="100%" height="100%" transform="translate(50 50)" stroke-width="0" style="transition: all 0.3s ease 0s;" stroke="url(#sw-gradient)"></path>
              </svg>